<svg width="319" height="17" viewBox="0 0 319 17" fill="none" xmlns="http://www.w3.org/2000/svg">
<line x1="181" y1="10.5" x2="319" y2="10.5" stroke="#49304D"/>
<line y1="10.5" x2="138" y2="10.5" stroke="#49304D"/>
<path d="M156.638 14.084C155.9 14.084 155.238 13.9207 154.65 13.594C154.062 13.2673 153.6 12.8193 153.264 12.25C152.937 11.6713 152.774 11.018 152.774 10.29C152.774 9.562 152.937 8.91333 153.264 8.344C153.6 7.76533 154.062 7.31733 154.65 7C155.238 6.67333 155.9 6.51 156.638 6.51C157.375 6.51 158.033 6.67333 158.612 7C159.2 7.31733 159.657 7.76533 159.984 8.344C160.32 8.91333 160.488 9.562 160.488 10.29C160.488 11.018 160.32 11.6713 159.984 12.25C159.657 12.8193 159.2 13.2673 158.612 13.594C158.033 13.9207 157.375 14.084 156.638 14.084ZM156.638 12.908C157.114 12.908 157.538 12.8007 157.912 12.586C158.294 12.362 158.593 12.054 158.808 11.662C159.022 11.2607 159.13 10.8033 159.13 10.29C159.13 9.77667 159.022 9.324 158.808 8.932C158.593 8.53067 158.294 8.22267 157.912 8.008C157.538 7.79333 157.114 7.686 156.638 7.686C156.162 7.686 155.732 7.79333 155.35 8.008C154.976 8.22267 154.678 8.53067 154.454 8.932C154.239 9.324 154.132 9.77667 154.132 10.29C154.132 10.8033 154.239 11.2607 154.454 11.662C154.678 12.054 154.976 12.362 155.35 12.586C155.732 12.8007 156.162 12.908 156.638 12.908ZM163.634 7.826C163.868 7.39667 164.213 7.07 164.67 6.846C165.128 6.622 165.683 6.51 166.336 6.51V7.812C166.262 7.80267 166.159 7.798 166.028 7.798C165.3 7.798 164.726 8.01733 164.306 8.456C163.896 8.88533 163.69 9.50133 163.69 10.304V14H162.346V6.58H163.634V7.826Z" fill="#49304D"/>
</svg>
