<svg width="84" height="84" viewBox="0 0 84 84" fill="none" xmlns="http://www.w3.org/2000/svg">
<path d="M23.1292 24.7238C22.8285 23.9221 23.2347 23.0284 24.0365 22.7276C24.8382 22.4268 25.7325 22.8331 26.0331 23.6349C28.1354 29.2408 32.9477 35.8358 40.4807 43.3691C48.0137 50.9021 54.6087 55.7145 60.2149 57.8167C61.0167 58.1173 61.4229 59.0117 61.1222 59.8133C60.8215 60.615 59.9278 61.0213 59.126 60.7206C53.0356 58.4368 46.1061 53.3803 38.2885 45.5623C30.4701 37.7439 25.4137 30.8145 23.1301 24.7248L23.1292 24.7238Z" fill="#49304D"/>
<path d="M4.317 79.5333L58.2813 58.151C58.437 54.6817 54.0144 48.1302 44.8671 38.9827C35.7199 29.8352 29.1685 25.4129 25.6988 25.5685L4.317 79.5333ZM24.1735 22.6834C28.977 21.3734 36.4057 26.1351 47.0605 36.7897C57.7151 47.4443 62.4769 54.8729 61.1668 59.6766C61.0382 60.1477 60.6957 60.5309 60.2418 60.7107L2.12566 83.738C0.862884 84.2385 -0.387455 82.9881 0.112994 81.7253L23.1403 23.6092C23.3201 23.1553 23.7033 22.8128 24.1743 22.6842L24.1735 22.6834Z" fill="#49304D"/>
<path d="M76.1851 16.5816C77.034 16.4696 77.8134 17.0668 77.926 17.9157C78.038 18.7652 77.4408 19.5446 76.5913 19.6566C71.6834 20.3051 67.048 22.1001 63.0067 24.8722C62.3004 25.3568 61.3354 25.177 60.8508 24.4707C60.3662 23.7645 60.546 22.7988 61.2523 22.3148C65.6932 19.2681 70.7902 17.295 76.185 16.5817L76.1851 16.5816Z" fill="#49304D"/>
<path d="M64.5552 41.3945C65.4042 41.2819 66.1835 41.8797 66.2955 42.7286C66.4075 43.5775 65.8103 44.3569 64.9614 44.4688C60.0535 45.1179 55.4181 46.9124 51.3768 49.6845C50.6705 50.1691 49.7055 49.9892 49.2209 49.283C48.7363 48.5767 48.9161 47.6117 49.6224 47.1271C54.0634 44.0803 59.1598 42.1072 64.5551 41.3946L64.5552 41.3945Z" fill="#49304D"/>
<path d="M36.8629 32.0419C36.3134 32.698 35.3348 32.7847 34.6786 32.2346C34.0219 31.6846 33.9352 30.7066 34.4852 30.0504C41.0413 22.2226 44.6936 12.3641 44.6936 1.93858C44.6936 1.08199 45.3881 0.388184 46.244 0.388184C47.1006 0.388184 47.795 1.08207 47.795 1.93858C47.795 13.0989 43.8822 23.6619 36.8627 32.0425L36.8629 32.0419Z" fill="#49304D"/>
<path d="M13.3541 79.0607L10.5426 77.7514C11.5825 75.5188 12.1284 73.0782 12.1284 70.558C12.1284 66.9854 11.0296 63.582 9.0127 60.7275L11.5459 58.9377C13.9294 62.3116 15.2298 66.3393 15.2298 70.558C15.2298 73.5333 14.5837 76.4203 13.3539 79.0608L13.3541 79.0607Z" fill="#49304D"/>
<path d="M22.631 75.2262L19.8248 73.9057C21.3872 70.5836 22.2083 66.948 22.2083 63.1922C22.2083 56.6667 19.7199 50.5362 15.3279 45.8877L17.5823 43.7578C22.5132 48.9757 25.3099 55.8661 25.3099 63.1917C25.3099 67.4063 24.3872 71.4929 22.631 75.2258V75.2262Z" fill="#49304D"/>
<path d="M29.6201 72.7163L27.1099 70.8947C31.1593 65.3141 33.3742 58.6071 33.3742 51.5619C33.3742 45.3571 31.6581 39.4094 28.4653 34.2499L31.1029 32.6182C34.597 38.2653 36.4753 44.7772 36.4753 51.5631C36.4753 59.2683 34.0513 66.6121 29.6203 72.7175L29.6201 72.7163Z" fill="#49304D"/>
<path d="M43.2738 67.2831L40.6296 65.6619C43.305 61.2988 44.9339 56.3674 45.3583 51.1931L48.4491 51.4466C47.9845 57.1085 46.2017 62.5086 43.2736 67.2826L43.2738 67.2831Z" fill="#49304D"/>
<path d="M27.8454 43.1149C28.2274 43.8813 27.9156 44.8121 27.1492 45.1941C26.3828 45.5761 25.4514 45.2643 25.07 44.4973C23.6569 41.6617 21.8417 39.0419 19.6687 36.7197C19.0833 36.0942 19.1163 35.1127 19.7412 34.5278C20.3667 33.9424 21.3482 33.9755 21.933 34.6004C24.3124 37.1431 26.2997 40.0111 27.8455 43.1149L27.8454 43.1149Z" fill="#49304D"/>
<path fill-rule="evenodd" clip-rule="evenodd" d="M29.963 49.2362C29.963 50.0928 29.2685 50.7872 28.412 50.7872C27.5554 50.7872 26.8616 50.0927 26.8616 49.2362C26.8616 48.3797 27.5555 47.6858 28.412 47.6858C29.2686 47.6858 29.963 48.3797 29.963 49.2362Z" fill="#49304D"/>
<path d="M31.1249 16.2828C28.3418 16.2828 26.085 14.0261 26.085 11.2428C26.085 8.45913 28.3417 6.20288 31.1249 6.20288C33.9086 6.20288 36.1649 8.45898 36.1649 11.2428C36.1649 14.026 33.9088 16.2828 31.1249 16.2828ZM31.1249 13.1813C32.1955 13.1813 33.0633 12.3135 33.0633 11.2428C33.0633 10.1722 32.1955 9.30443 31.1249 9.30443C30.0543 9.30443 29.1865 10.1722 29.1865 11.2428C29.1865 12.3135 30.0543 13.1813 31.1249 13.1813Z" fill="#49304D"/>
<path d="M62.9159 10.0799C60.1322 10.0799 57.876 7.82322 57.876 5.03996C57.876 2.25685 60.1321 0 62.9159 0C65.699 0 67.9559 2.2567 67.9559 5.03996C67.9559 7.82307 65.6992 10.0799 62.9159 10.0799ZM62.9159 6.97837C63.9865 6.97837 64.8544 6.11058 64.8544 5.03996C64.8544 3.96934 63.9866 3.10155 62.9159 3.10155C61.8453 3.10155 60.9775 3.96934 60.9775 5.03996C60.9775 6.11058 61.8453 6.97837 62.9159 6.97837Z" fill="#49304D"/>
<path d="M73.7702 38.7684C70.9871 38.7684 68.7302 36.5123 68.7302 33.7284C68.7302 30.9453 70.9869 28.6885 73.7702 28.6885C76.5533 28.6885 78.8101 30.9452 78.8101 33.7284C78.8101 36.5121 76.5534 38.7684 73.7702 38.7684ZM73.7702 35.6675C74.8408 35.6675 75.7086 34.7991 75.7086 33.7284C75.7086 32.6584 74.8408 31.79 73.7702 31.79C72.6996 31.79 71.8318 32.6584 71.8318 33.7284C71.8318 34.799 72.6996 35.6675 73.7702 35.6675Z" fill="#49304D"/>
<path d="M50.8967 25.5869C50.8967 24.7303 51.5906 24.0359 52.4471 24.0359C53.3036 24.0359 53.9981 24.7304 53.9981 25.5869V31.7894C53.9981 32.646 53.3037 33.3404 52.4471 33.3404C51.5906 33.3404 50.8967 32.6459 50.8967 31.7894V25.5869Z" fill="#49304D"/>
<path d="M49.3468 30.2401C48.4908 30.2401 47.7964 29.5456 47.7964 28.6891C47.7964 27.8331 48.4909 27.1387 49.3468 27.1387H55.5499C56.4065 27.1387 57.1009 27.8331 57.1009 28.6891C57.1009 29.5457 56.4064 30.2401 55.5499 30.2401H49.3468Z" fill="#49304D"/>
<path d="M67.9553 68.2323C67.9553 67.3757 68.6492 66.6819 69.5057 66.6819C70.3622 66.6819 71.0567 67.3758 71.0567 68.2323V74.4354C71.0567 75.292 70.3623 75.9858 69.5057 75.9858C68.6492 75.9858 67.9553 75.2919 67.9553 74.4354V68.2323Z" fill="#49304D"/>
<path d="M66.4037 72.8853C65.5477 72.8853 64.8533 72.1909 64.8533 71.3343C64.8533 70.4777 65.5477 69.7839 66.4037 69.7839H72.6068C73.4634 69.7839 74.1578 70.4778 74.1578 71.3343C74.1578 72.1909 73.4633 72.8853 72.6068 72.8853H66.4037Z" fill="#49304D"/>
<path d="M12.1287 9.30466C12.1287 8.44807 12.8231 7.75366 13.6797 7.75366C14.5362 7.75366 15.2301 8.44813 15.2301 9.30466V15.5078C15.2301 16.3638 14.5362 17.0582 13.6797 17.0582C12.8231 17.0582 12.1287 16.3637 12.1287 15.5078V9.30466Z" fill="#49304D"/>
<path d="M10.5786 13.9566C9.722 13.9566 9.02759 13.2622 9.02759 12.4062C9.02759 11.5496 9.72206 10.8552 10.5786 10.8552H16.7817C17.6377 10.8552 18.3321 11.5497 18.3321 12.4062C18.3321 13.2622 17.6376 13.9566 16.7817 13.9566H10.5786Z" fill="#49304D"/>
<path fill-rule="evenodd" clip-rule="evenodd" d="M72.6068 49.624C72.6068 50.48 71.9123 51.1744 71.0564 51.1744C70.1998 51.1744 69.5054 50.4799 69.5054 49.624C69.5054 48.7674 70.1998 48.073 71.0564 48.073C71.9124 48.073 72.6068 48.7675 72.6068 49.624Z" fill="#49304D"/>
<path fill-rule="evenodd" clip-rule="evenodd" d="M78.0352 62.0296C78.0352 62.8862 77.3408 63.5806 76.4842 63.5806C75.6282 63.5806 74.9338 62.8862 74.9338 62.0296C74.9338 61.1736 75.6283 60.4792 76.4842 60.4792C77.3408 60.4792 78.0352 61.1737 78.0352 62.0296Z" fill="#49304D"/>
<path fill-rule="evenodd" clip-rule="evenodd" d="M55.5496 14.7318C55.5496 15.5884 54.8552 16.2828 53.9992 16.2828C53.1427 16.2828 52.4482 15.5883 52.4482 14.7318C52.4482 13.8758 53.1427 13.1814 53.9992 13.1814C54.8552 13.1814 55.5496 13.8759 55.5496 14.7318Z" fill="#49304D"/>
<path fill-rule="evenodd" clip-rule="evenodd" d="M83.4622 18.6084C83.4622 19.4644 82.7684 20.1588 81.9118 20.1588C81.0553 20.1588 80.3608 19.4643 80.3608 18.6084C80.3608 17.7518 81.0553 17.0574 81.9118 17.0574C82.7684 17.0574 83.4622 17.7518 83.4622 18.6084Z" fill="#49304D"/>
<path fill-rule="evenodd" clip-rule="evenodd" d="M22.9841 3.87681C22.9841 4.7334 22.2902 5.42781 21.4337 5.42781C20.5772 5.42781 19.8833 4.73334 19.8833 3.87681C19.8833 3.02028 20.5772 2.32642 21.4337 2.32642C22.2902 2.32642 22.9841 3.0203 22.9841 3.87681Z" fill="#49304D"/>
</svg>
