<svg width="28" height="28" viewBox="0 0 28 28" fill="none" xmlns="http://www.w3.org/2000/svg">
<path d="M14 0C6.28061 0 0 6.28008 0 14C0 21.7199 6.28061 28 14 28C21.7194 28 28 21.7199 28 14C28 6.28008 21.7194 0 14 0Z" fill="#69C7BF"/>
<path d="M20.5972 8.25784L12.3216 17.5678L7.33597 13.5795C7.10443 13.3937 6.76466 13.4319 6.57943 13.6635C6.39366 13.8961 6.43135 14.2348 6.66343 14.4205L12.048 18.7282C12.1471 18.8074 12.2661 18.8461 12.3846 18.8461C12.5332 18.8461 12.6813 18.7848 12.7874 18.6652L21.4027 8.97292C21.6004 8.75107 21.5804 8.41022 21.358 8.21315C21.1351 8.01499 20.7954 8.03492 20.5972 8.25784Z" fill="white"/>
</svg>
